<svg xmlns="http://www.w3.org/2000/svg" xmlns:xlink="http://www.w3.org/1999/xlink" width="82" height="83" viewBox="0 0 82 83">
  <defs>
    <style>
      .cls-1, .cls-2 {
        fill: #dcd4d0;
        fill-rule: evenodd;
      }

      .cls-1 {
        filter: url(#filter);
      }

      .cls-2 {
        filter: url(#filter-2);
      }
    </style>
    <filter id="filter" x="5421.91" y="7070" width="82.62" height="82.66" filterUnits="userSpaceOnUse">
      <feFlood result="flood" flood-color="#ff3b30"/>
      <feComposite result="composite" operator="in" in2="SourceGraphic"/>
      <feBlend result="blend" in2="SourceGraphic"/>
    </filter>
    <filter id="filter-2" x="5439.97" y="7092.91" width="48.44" height="38.75" filterUnits="userSpaceOnUse">
      <feFlood result="flood" flood-color="#fff"/>
      <feComposite result="composite" operator="in" in2="SourceGraphic"/>
      <feBlend result="blend" in2="SourceGraphic"/>
    </filter>
  </defs>
  <g id="Checkmark-Red_Selected">
    <path id="body_copy_36" data-name="body copy 36" class="cls-1" d="M5433.37,7070h59.7a11.472,11.472,0,0,1,11.47,11.48v59.69a11.472,11.472,0,0,1-11.47,11.48h-59.7a11.472,11.472,0,0,1-11.47-11.48v-59.69A11.472,11.472,0,0,1,5433.37,7070Z" transform="translate(-5422 -7070)"/>
    <path id="check_copy_12" data-name="check copy 12" class="cls-2" d="M5488.4,7100.49l-30.83,31.17-17.61-17.8,7.5-7.58,10.11,10.22,23.33-23.58Z" transform="translate(-5422 -7070)"/>
  </g>
</svg>
