<svg xmlns="http://www.w3.org/2000/svg" width="88" height="88" viewBox="0 0 88 88">
  <defs>
    <style>
      .cls-1 {
        fill: #fff;
        fill-rule: evenodd;
      }
    </style>
  </defs>
  <g id="Menu_Map_Unselected">
    <path id="marks_copy_3" data-name="marks copy 3" class="cls-1" d="M5918.24,7982.5a25.5,25.5,0,0,1,25.59,25.34,25.083,25.083,0,0,1-3.44,12.67l-22.15,38.01-22.15-38.01a25.173,25.173,0,0,1-3.43-12.67,25.488,25.488,0,0,1,25.58-25.34m0,33.79a8.445,8.445,0,1,0-8.53-8.45,8.5,8.5,0,0,0,8.53,8.45m0-36.6a28.288,28.288,0,0,0-28.42,28.15,27.694,27.694,0,0,0,3.82,14.08l24.6,42.23,24.61-42.23a27.794,27.794,0,0,0,3.82-14.08,28.3,28.3,0,0,0-28.43-28.15h0Zm0,33.78a5.63,5.63,0,1,1,5.69-5.63,5.653,5.653,0,0,1-5.69,5.63h0Z" transform="translate(-5874 -7978)"/>
  </g>
</svg>
