<svg xmlns="http://www.w3.org/2000/svg" width="57" height="60" viewBox="0 0 57 60">
  <defs>
    <style>
      .cls-1 {
        fill: #515151;
        fill-rule: evenodd;
      }
    </style>
  </defs>
  <g id="Calendar_Menu_Alarm">
    <path id="alram" class="cls-1" d="M727.73,7789.42v-17.66a18.646,18.646,0,0,0-15.326-18.37v-1.4a2.19,2.19,0,0,0-2.187-2.2h-2.186a2.19,2.19,0,0,0-2.187,2.2v1.41a18.641,18.641,0,0,0-15.284,18.36v17.66l-7.674,6.24v3.56h52.475v-3.56Zm-18.607,17.48a5.485,5.485,0,0,0,5.471-5.5H703.655A5.486,5.486,0,0,0,709.123,7806.9Z" transform="translate(-681 -7749)"/>
  </g>
</svg>
