<svg xmlns="http://www.w3.org/2000/svg" width="88" height="88" viewBox="0 0 88 88">
  <defs>
    <style>
      .cls-1 {
        fill: #fff;
        fill-rule: evenodd;
      }
    </style>
  </defs>
  <g id="Menu_Doctor_Unselected">
    <path id="camera_copy_2" data-name="camera copy 2" class="cls-1" d="M5828.37,8001.28l-20,12.14v-13.71a4.69,4.69,0,0,0-4.67-4.71h-49.78a4.69,4.69,0,0,0-4.67,4.71v43.97a4.69,4.69,0,0,0,4.67,4.71h49.78a4.69,4.69,0,0,0,4.67-4.71v-13.97l20.44,12.4h7.56v-40.83h-8Zm-23.11,42.4a1.564,1.564,0,0,1-1.56,1.57h-49.78a1.564,1.564,0,0,1-1.56-1.57v-43.97a1.564,1.564,0,0,1,1.56-1.57h49.78a1.564,1.564,0,0,1,1.56,1.57v43.97Zm28-4.71h-3.59l-21.3-12.93v-8.95l20.86-12.67h4.03v34.55Z" transform="translate(-5749 -7978)"/>
  </g>
</svg>
