<svg xmlns="http://www.w3.org/2000/svg" width="88" height="88" viewBox="0 0 88 88">
  <defs>
    <style>
      .cls-1 {
        fill: #fff;
        fill-rule: evenodd;
      }
    </style>
  </defs>
  <g id="Menu_News_Unselected">
    <path id="Favorites_copy_2" data-name="Favorites copy 2" class="cls-1" d="M5671.7,7990.63l7.47,21.89,0.75,2.2h27.01l-19.81,15.46-1.75,1.36,0.63,2.13,6.57,21.93-19.03-12.99-1.84-1.25-1.83,1.25-19.03,12.99,6.56-21.93,0.64-2.13-1.75-1.37-19.84-15.45h27l0.75-2.2,7.5-21.89m0-10.05-10.58,30.89H5627l27.29,21.27-9.19,30.72,26.6-18.17,26.61,18.17-9.19-30.72,27.25-21.27h-34.12l-10.55-30.89h0Z" transform="translate(-5627 -7978)"/>
  </g>
</svg>
