<svg xmlns="http://www.w3.org/2000/svg" width="88" height="88" viewBox="0 0 88 88">
  <defs>
    <style>
      .cls-1 {
        fill: #fff;
        fill-rule: evenodd;
      }
    </style>
  </defs>
  <g id="Menu_Settings_Unselected">
    <path id="setting_copy" data-name="setting copy" class="cls-1" d="M6042.99,7982.28v8.45l2.6,0.67a30.912,30.912,0,0,1,8.34,3.51l2.32,1.41,1.92-1.92,4.12-4.13,7.35,7.35-4.26,4.27-1.87,1.87,1.32,2.3a31.192,31.192,0,0,1,3.25,8.21l0.64,2.66h8.92v10.4h-9.12l-0.7,2.54a31.008,31.008,0,0,1-3.38,7.82l-1.41,2.32,1.92,1.93,4.69,4.69-7.35,7.35-4.83-4.83-1.87-1.87-2.3,1.32a31.341,31.341,0,0,1-7.7,3.12l-2.6.67v9.59h-10.4v-9.59l-2.6-.67a31.341,31.341,0,0,1-7.7-3.12l-2.3-1.32-1.87,1.87-4.83,4.83-7.35-7.35,4.69-4.69,1.92-1.93-1.41-2.32a31.008,31.008,0,0,1-3.38-7.82l-0.7-2.54h-9.12v-10.4h8.92l0.64-2.66a31.192,31.192,0,0,1,3.25-8.21l1.32-2.3-1.87-1.87-4.26-4.27,7.35-7.35,4.12,4.13,1.92,1.92,2.32-1.41a30.912,30.912,0,0,1,8.34-3.51l2.6-.67v-8.45h10.4m-5.2,55.45a15.6,15.6,0,1,0-15.59-15.6,15.612,15.612,0,0,0,15.59,15.6m8.66-58.92h-17.32v9.23a34.279,34.279,0,0,0-9.27,3.91l-6.57-6.58-12.26,12.25,6.72,6.72a34.293,34.293,0,0,0-3.63,9.13h-9.65v17.32h9.95a34.444,34.444,0,0,0,3.76,8.7l-7.15,7.14,12.26,12.25,7.28-7.28a34.322,34.322,0,0,0,8.56,3.47v10.38h17.32v-10.38a34.322,34.322,0,0,0,8.56-3.47l7.28,7.28,12.25-12.25-7.14-7.14a34.444,34.444,0,0,0,3.76-8.7h9.95v-17.32h-9.65a34.293,34.293,0,0,0-3.63-9.13l6.71-6.72-12.25-12.25-6.57,6.58a34.279,34.279,0,0,0-9.27-3.91v-9.23h0Zm-8.66,55.45a12.13,12.13,0,1,1,12.13-12.13,12.129,12.129,0,0,1-12.13,12.13h0Z" transform="translate(-5994 -7978)"/>
  </g>
</svg>
